<svg id="Layer_1" data-name="Layer 1" xmlns="http://www.w3.org/2000/svg" xmlns:xlink="http://www.w3.org/1999/xlink"
  viewBox="0 0 283.46 283.46">
  <defs>
    <style>
      .cls-1 {
        fill: #0d0d0d;
      }

      .cls-2 {
        fill: url(#linear-gradient);
      }
    </style>
    <linearGradient id="linear-gradient" x1="213.77" y1="213.56" x2="74.94" y2="74.73" gradientUnits="userSpaceOnUse">
      <stop offset="0" stop-color="#57c3ff" />
      <stop offset="0.13" stop-color="#43d1ef" />
      <stop offset="0.35" stop-color="#26e4d7" />
      <stop offset="0.57" stop-color="#12f3c7" />
      <stop offset="0.79" stop-color="#05fbbc" />
      <stop offset="1" stop-color="#01feb9" />
    </linearGradient>
  </defs>
  <rect class="cls-1" width="283.46" height="283.46" rx="47.2" />
  <path class="cls-2"
    d="M214,212.69q-10.41,13.56-28.83,20.54t-41.87,7q-24.09,0-42.65-10.92T72,198q-10.06-20.34-10.46-47.46v-15q0-43.44,20.8-67.86t58.06-24.42q32,0,50.81,15.86t22.64,45.62H181.18Q175.65,70.12,141,70.12q-22.38,0-34,16.11T95,133.51v14.73q0,31,13.1,48.21t36.4,17.16q25.53,0,36.33-11.58V164.51H141.29V139.23H214Z"
    transform="translate(0 0)" />
</svg>