<svg id="Layer_1" data-name="Layer 1" xmlns="http://www.w3.org/2000/svg" viewBox="0 0 136.06 104.12">
  <defs>
    <style>
      .cls-1 {
        fill: #01feb9;
      }

      .cls-2 {
        fill: #57c3ff;
      }

      .cls-3 {
        fill: #333333;
      }

      @media (prefers-color-scheme: dark) {
        .cls-3 {
          fill: #fff;
        }
      }
    </style>
  </defs>
  <path class="cls-1"
    d="M28.62,104.12Q9.47,98.74,9.47,79.38V68.79Q9.47,57.57,0,57.56v-11q9.25,0,9.47-10.59V24.69q0-9.85,4.79-15.91T28.62,0l3,8.57a11.29,11.29,0,0,0-6.12,5.18Q23.41,17.45,23.3,24V35.17q0,12-9.52,16.86,9.53,4.89,9.52,17V80.28q.27,12.45,8.3,15.22Z"
    transform="translate(0 0)" />
  <path class="cls-2"
    d="M104.46,95.5q8.08-2.88,8.3-15.43V68.79q0-12,9.74-16.71-9.73-4.68-9.74-17V24q-.21-12.39-8.3-15.42l3-8.57Q117,2.66,121.75,8.7t4.84,15.83V36q.21,10.59,9.47,10.59v11q-9.47,0-9.47,11.12V80.23q-.42,18.61-19.15,23.89Z"
    transform="translate(0 0)" />
  <path class="cls-3"
    d="M98.84,80.73A25.74,25.74,0,0,1,87.18,89a47.48,47.48,0,0,1-16.91,2.82A33.38,33.38,0,0,1,53,87.44,29.44,29.44,0,0,1,41.46,74.8a44,44,0,0,1-4.23-19.18V49.56q0-17.57,8.4-27.43T69.1,12.26q12.91,0,20.53,6.41t9.15,18.44H85.59q-2.24-14-16.23-14-9,0-13.75,6.51T50.74,48.74v5.95q0,12.54,5.29,19.48t14.71,6.94q10.33,0,14.69-4.69V61.26h-16V51.05H98.84Z"
    transform="translate(0 0)" />
</svg>