<svg id="Layer_1" data-name="Layer 1" xmlns="http://www.w3.org/2000/svg" viewBox="0 0 136.73 104.63">
  <defs>
    <style>
      .cls-1 {
        fill: #01feb9;
      }

      .cls-2 {
        fill: #57c3ff;
      }

      .cls-3 {
        fill: #333333;
      }

      @media (prefers-color-scheme: dark) {
        .cls-3 {
          fill: #fff;
        }
      }
    </style>
  </defs>
  <path class="cls-1"
    d="M29.85,106.17q-19.26-5.4-19.25-24.86V70.67q0-11.28-9.52-11.28V48.32q9.3,0,9.52-10.63V26.35q0-9.88,4.81-16T29.85,1.54l3,8.61a11.34,11.34,0,0,0-6.15,5.21q-2.09,3.72-2.19,10.3V36.88q0,12.09-9.57,16.95,9.57,4.92,9.57,17.06V82.22q.27,12.51,8.34,15.29Z"
    transform="translate(-1.08 -1.54)" />
  <path class="cls-2"
    d="M106.06,97.51q8.13-2.88,8.34-15.5V70.67q0-12.08,9.78-16.79-9.78-4.69-9.78-17.05V25.66q-.21-12.46-8.34-15.51l3-8.61q9.57,2.68,14.38,8.75t4.87,15.9v11.5q.21,10.64,9.51,10.63V59.39q-9.51,0-9.51,11.18v11.6q-.44,18.7-19.25,24Z"
    transform="translate(-1.08 -1.54)" />
  <path class="cls-3"
    d="M100.4,82.68A25.82,25.82,0,0,1,88.7,91a48,48,0,0,1-17,2.83,33.5,33.5,0,0,1-17.32-4.44,29.61,29.61,0,0,1-11.63-12.7,44.53,44.53,0,0,1-4.25-19.27V51.35q0-17.66,8.45-27.57t23.58-9.91q13,0,20.64,6.44t9.19,18.52H87.09q-2.25-14.05-16.3-14.06-9.09,0-13.82,6.55t-4.9,19.2v6q0,12.61,5.32,19.58t14.79,7q10.36,0,14.75-4.71V63.11h-16V52.84H100.4Z"
    transform="translate(-1.08 -1.54)" />
</svg>