<svg id="Layer_1" data-name="Layer 1" xmlns="http://www.w3.org/2000/svg" viewBox="0 0 230.55 99.84"><path d="M31.91,37.86a14.42,14.42,0,0,1-6.7,4.46,28,28,0,0,1-9.94,1.48,15.46,15.46,0,0,1-7.68-1.92,13.38,13.38,0,0,1-5.21-5.43A19.13,19.13,0,0,1,.21,28.36a36.67,36.67,0,0,1,.89-9.91,27.92,27.92,0,0,1,4.07-10A19.1,19.1,0,0,1,12.1,2a18.23,18.23,0,0,1,9-2q6.67.12,10.46,3.77t4.3,10.44l-8.26,0a8.73,8.73,0,0,0-1.9-5.27A6.53,6.53,0,0,0,21,7.09a9.27,9.27,0,0,0-8.54,4.76q-3.12,5-3.56,14.32c-.19,3.34.32,5.92,1.54,7.76A6.36,6.36,0,0,0,16,36.74a11.84,11.84,0,0,0,7.44-2.08l1.44-7.35h-7.8l1.15-6.48H34.49Z" transform="translate(0.5 0.5)" style="fill:none;stroke:#ff02d0;stroke-miterlimit:10"/><path d="M56.75,40A10.92,10.92,0,0,1,48,43.83a8.13,8.13,0,0,1-6.91-3.28c-1.57-2.15-2.17-5-1.82-8.5l3.43-20.5H51L47.49,32.17a9.22,9.22,0,0,0,0,1.81,3,3,0,0,0,3.26,3,7.55,7.55,0,0,0,6.35-3l4-22.49h8.32l-5.51,31.7h-7.7Z" transform="translate(0.5 0.5)" style="fill:none;stroke:#ff02d0;stroke-miterlimit:10"/><path d="M83.06,11.52l-.7,3.75A11.4,11.4,0,0,1,91.59,11a7.62,7.62,0,0,1,6.62,3.28q2.13,3.2,1.55,8.85L96.42,43.25H88.16L91.56,23a10.6,10.6,0,0,0,.06-2.08c-.26-2-1.51-3-3.75-3.07a7.08,7.08,0,0,0-5.83,3l-4,22.39H69.82l5.51-31.7Z" transform="translate(0.5 0.5)" style="fill:none;stroke:#ff02d0;stroke-miterlimit:10"/><path d="M116,11.52l-.7,3.75A11.4,11.4,0,0,1,124.49,11a7.62,7.62,0,0,1,6.62,3.28q2.13,3.2,1.55,8.85l-3.34,20.16h-8.26L124.46,23a10.6,10.6,0,0,0,.06-2.08c-.26-2-1.51-3-3.75-3.07a7.08,7.08,0,0,0-5.83,3l-4,22.39h-8.26l5.51-31.7Z" transform="translate(0.5 0.5)" style="fill:none;stroke:#ff02d0;stroke-miterlimit:10"/><path d="M154.13,43.25a8.7,8.7,0,0,1-.32-2.88,10.7,10.7,0,0,1-8.08,3.46,9.7,9.7,0,0,1-6.9-2.71,8.22,8.22,0,0,1-2.57-6.55,9.5,9.5,0,0,1,4.35-7.95q4.15-2.78,11.12-2.77l3.87.06L156,22a6.49,6.49,0,0,0,.09-1.85,3.18,3.18,0,0,0-1-2.15,3.58,3.58,0,0,0-2.36-.81,5.06,5.06,0,0,0-3.28.95,4.62,4.62,0,0,0-1.73,2.92l-8.29,0a9.2,9.2,0,0,1,4.17-7.37,16.15,16.15,0,0,1,9.8-2.77q5.4.12,8.44,3.21a9.39,9.39,0,0,1,2.55,8L161.93,37.3l-.15,1.87a9.07,9.07,0,0,0,.5,3.52l0,.56Zm-6.35-5.83A7.59,7.59,0,0,0,154,34.31l1-5.48-2.87,0c-3,.08-5.24,1-6.59,2.79a4.82,4.82,0,0,0-.91,2.37,2.81,2.81,0,0,0,.66,2.5A3.34,3.34,0,0,0,147.78,37.42Z" transform="translate(0.5 0.5)" style="fill:none;stroke:#ff02d0;stroke-miterlimit:10"/><path d="M189,19.49a16.64,16.64,0,0,0-2.78-.3,8.05,8.05,0,0,0-7,3.31l-3.66,20.75h-8.26l5.51-31.7,7.76,0-.76,3.86c2-3,4.45-4.48,7.38-4.48a12.2,12.2,0,0,1,2.87.41Z" transform="translate(0.5 0.5)" style="fill:none;stroke:#ff02d0;stroke-miterlimit:10"/><path d="M14.86,98.83a15.07,15.07,0,0,1-7.49-2,13.39,13.39,0,0,1-5.12-5.53A20.57,20.57,0,0,1,.06,83a33.48,33.48,0,0,1,1-10.25,27.41,27.41,0,0,1,4.33-9.58,19.61,19.61,0,0,1,7-6.18,18.14,18.14,0,0,1,8.72-2,14.89,14.89,0,0,1,7.53,2,13.45,13.45,0,0,1,5.06,5.6,20.64,20.64,0,0,1,2.11,8.27,34.28,34.28,0,0,1-1.11,10.61A26.79,26.79,0,0,1,30.38,91a19.56,19.56,0,0,1-6.92,6A18.1,18.1,0,0,1,14.86,98.83ZM27,75.75,27.25,73q.29-5.2-1.39-7.91a5.91,5.91,0,0,0-5.11-2.81q-5.37-.18-8.51,4.75T8.68,80.76q-.3,5.17,1.37,8a5.86,5.86,0,0,0,5.19,2.91,8.82,8.82,0,0,0,7.62-3.58q3-3.79,3.95-10.74Z" transform="translate(0.5 0.5)" style="fill:none;stroke:#ff02d0;stroke-miterlimit:10"/><path d="M46.41,98.25H38.09l7.82-45H54.2Z" transform="translate(0.5 0.5)" style="fill:none;stroke:#ff02d0;stroke-miterlimit:10"/><path d="M71.75,98.25a8.7,8.7,0,0,1-.32-2.88,10.71,10.71,0,0,1-8.09,3.46,9.74,9.74,0,0,1-6.9-2.71,8.21,8.21,0,0,1-2.56-6.55,9.5,9.5,0,0,1,4.35-7.95q4.16-2.78,11.12-2.77l3.87.06.41-1.9a6.86,6.86,0,0,0,.08-1.85,3.1,3.1,0,0,0-1-2.15,3.55,3.55,0,0,0-2.35-.81,5,5,0,0,0-3.28,1,4.62,4.62,0,0,0-1.73,2.92L57,76.1a9.18,9.18,0,0,1,4.17-7.37A16.13,16.13,0,0,1,71,66c3.59.08,6.41,1.15,8.44,3.21a9.39,9.39,0,0,1,2.55,8L79.54,92.3l-.14,1.87a9.07,9.07,0,0,0,.5,3.52l0,.56Zm-6.36-5.83a7.57,7.57,0,0,0,6.24-3.11l1-5.48-2.87,0q-4.58.12-6.59,2.79A4.82,4.82,0,0,0,62.29,89a2.78,2.78,0,0,0,.66,2.5A3.31,3.31,0,0,0,65.39,92.42Z" transform="translate(0.5 0.5)" style="fill:none;stroke:#ff02d0;stroke-miterlimit:10"/><path d="M87.13,98.25l4.43-25.52H87l1.08-6.18,4.57,0,.41-3.17a11.93,11.93,0,0,1,12.72-10.78,28.73,28.73,0,0,1,4.48.61l-.73,6.57a10.5,10.5,0,0,0-2.44-.35,6,6,0,0,0-3.76,1.12A5,5,0,0,0,101.37,64l-.44,2.59h6.12L106,72.73H99.88L95.45,98.25Z" transform="translate(0.5 0.5)" style="fill:none;stroke:#ff02d0;stroke-miterlimit:10"/><path d="M124.43,89.31c.31-1.56-.77-2.7-3.25-3.4l-2.67-.67q-9.47-2.61-9.2-9.2a9.1,9.1,0,0,1,4-7.31A14.74,14.74,0,0,1,122.49,66a13.31,13.31,0,0,1,8.68,2.84,9.4,9.4,0,0,1,3.37,7.41l-8.21,0q.06-4.08-4-4.14a5.88,5.88,0,0,0-3.36,1,4,4,0,0,0-1.74,2.61q-.43,2.34,3.55,3.31l1.17.26a23.9,23.9,0,0,1,6.18,2.21,9.5,9.5,0,0,1,3.3,3.1,7.63,7.63,0,0,1,1.06,4.42,8.37,8.37,0,0,1-1.94,5.27,11.87,11.87,0,0,1-5.1,3.49,17.74,17.74,0,0,1-6.81,1.14,13.39,13.39,0,0,1-8.79-3,9.77,9.77,0,0,1-3.58-7.69l7.8.06c.07,3,1.7,4.56,4.86,4.6a6.91,6.91,0,0,0,3.77-.94A3.76,3.76,0,0,0,124.43,89.31Z" transform="translate(0.5 0.5)" style="fill:none;stroke:#ff02d0;stroke-miterlimit:10"/><path d="M154.63,89.31c.31-1.56-.77-2.7-3.25-3.4l-2.67-.67q-9.45-2.61-9.19-9.2a9.07,9.07,0,0,1,4-7.31A14.72,14.72,0,0,1,152.7,66a13.3,13.3,0,0,1,8.67,2.84,9.37,9.37,0,0,1,3.37,7.41l-8.2,0q.06-4.08-4-4.14a5.84,5.84,0,0,0-3.35,1,4,4,0,0,0-1.74,2.61c-.3,1.56.89,2.66,3.54,3.31l1.17.26a23.62,23.62,0,0,1,6.18,2.21,9.41,9.41,0,0,1,3.3,3.1,7.63,7.63,0,0,1,1.07,4.42,8.44,8.44,0,0,1-1.95,5.27,11.87,11.87,0,0,1-5.1,3.49,17.68,17.68,0,0,1-6.81,1.14,13.42,13.42,0,0,1-8.79-3,9.79,9.79,0,0,1-3.57-7.69l7.79.06q.12,4.55,4.87,4.6a6.88,6.88,0,0,0,3.76-.94A3.69,3.69,0,0,0,154.63,89.31Z" transform="translate(0.5 0.5)" style="fill:none;stroke:#ff02d0;stroke-miterlimit:10"/><path d="M184.6,66a12.8,12.8,0,0,1,7.23,2.15,12.14,12.14,0,0,1,4.45,5.78,17.84,17.84,0,0,1,1,8.15A19.31,19.31,0,0,1,192,94.28a14.86,14.86,0,0,1-11.32,4.55,12.72,12.72,0,0,1-7.15-2.12A12.07,12.07,0,0,1,169.11,91a17.48,17.48,0,0,1-1-8.09q.76-7.85,5.33-12.48A14.56,14.56,0,0,1,184.6,66Zm-8.35,19.93a7.31,7.31,0,0,0,1.32,4.43A4.37,4.37,0,0,0,181.12,92a6.42,6.42,0,0,0,6-3.5c1.45-2.41,2.12-5.57,2-9.49a8,8,0,0,0-1.37-4.49,4.31,4.31,0,0,0-3.56-1.74,6.42,6.42,0,0,0-5.9,3.46Q176.08,79.84,176.25,85.89Z" transform="translate(0.5 0.5)" style="fill:none;stroke:#ff02d0;stroke-miterlimit:10"/><path d="M212.73,66.52l-.7,3.75A11.38,11.38,0,0,1,221.25,66a7.62,7.62,0,0,1,6.63,3.28q2.13,3.2,1.55,8.85l-3.34,20.16h-8.26L221.22,78a9.25,9.25,0,0,0,.06-2.08c-.25-2-1.5-3-3.75-3.07s-4.11.92-5.83,3l-3.95,22.39h-8.26l5.5-31.7Z" transform="translate(0.5 0.5)" style="fill:none;stroke:#ff02d0;stroke-miterlimit:10"/></svg>